<svg version="1.1" id="Layer_1" xmlns="http://www.w3.org/2000/svg" x="0" y="0" viewBox="0 0 193.85 193.15" xml:space="preserve"><linearGradient id="SVGID_1_" gradientUnits="userSpaceOnUse" x1="-166.155" y1="241.399" x2="332.165" y2="241.399" gradientTransform="matrix(1 0 0 -1 0 337.973)"><stop offset="0" stop-color="#7ed4ef"/><stop offset=".229" stop-color="#66bfe6"/><stop offset=".711" stop-color="#298bd0"/><stop offset="1" stop-color="#0169c2"/></linearGradient><path d="M181.48 11.44c-15.28-15.26-40.03-15.26-55.3 0l-23.89 23.89c-13.21 13.23-15.22 33.95-4.8 49.46L85.13 97.15c-15.52-10.73-36.48-8.86-49.85 4.46L11.44 125.5c-15.26 15.27-15.26 40.02 0 55.3l.91.91c15.27 15.27 40.03 15.27 55.3 0l23.89-23.89c13.14-13.19 15.18-33.8 4.91-49.31l12.38-12.38c15.5 10.65 36.4 8.72 49.7-4.59l23.89-23.89c15.25-15.28 15.25-40.02 0-55.3l-.94-.91zM80.24 146.5l-23.92 23.89c-9.14 8.73-23.54 8.73-32.68 0l-.91-.91c-9.01-9.03-9.01-23.65 0-32.68l23.91-23.88c7.21-6.84 17.92-8.43 26.82-4l-10.4 10.4a8.002 8.002 0 00-2.18 7.78c.73 2.8 2.91 4.98 5.71 5.71 2.8.73 5.77-.1 7.78-2.18l10.31-10.31c4.2 8.78 2.42 19.26-4.44 26.18zm90.84-90.15l-23.89 23.89a23.642 23.642 0 01-26.63 4.14l10.4-10.36c3.12-3.13 3.11-8.21-.02-11.33-3.14-3.12-8.21-3.11-11.33.02l-10.4 10.4a22.838 22.838 0 014.36-26.4l23.89-23.89c9.02-9.02 23.65-9.02 32.68 0l.91.91c8.97 9.01 8.99 23.58.03 32.62z" fill="url(#SVGID_1_)"/></svg>