<svg version="1.1" id="Capa_1" xmlns="http://www.w3.org/2000/svg" x="0" y="0" viewBox="0 0 512 383.73" xml:space="preserve"><style>.st0{fill:#477b9e}.st1{fill:#3f6d8e}.st2{fill:#365e7d}.st3{fill:#b5dcff}.st7{fill:#7fb3fa}.st8{fill:#64a6f4}</style><path class="st0" d="M431.16 54.13v-9.56C431.16 20.06 411.19 0 386.79 0H253.84c-24.41 0-44.37 20.06-44.37 44.57v9.56h221.69z"/><path class="st1" d="M311.85 0h-58c-24.41 0-44.37 20.06-44.37 44.57v9.56h58v-9.56C267.47 20.06 287.44 0 311.85 0zm-175.4 115.79V339c0 15.71-12.85 28.56-28.56 28.56h375.55c15.71 0 28.56-12.85 28.56-28.56V115.79H136.45z"/><path class="st2" d="M191.66 339V115.79h-55.21V339c0 15.71-12.85 28.56-28.56 28.56h55.21c15.7 0 28.56-12.85 28.56-28.56z"/><path class="st3" d="M483.44 53.89H107.89c15.71 0 28.56 12.85 28.56 28.56v35.39H512V82.46c0-15.71-12.85-28.57-28.56-28.57z"/><path class="st3" d="M483.44 53.89H107.89c15.71 0 28.56 12.85 28.56 28.56v35.39H512V82.46c0-15.71-12.85-28.57-28.56-28.57z"/><path d="M163.09 53.89h-55.21c15.71 0 28.56 12.85 28.56 28.56v35.39h55.21V82.46c.01-15.71-12.85-28.57-28.56-28.57z" fill="#8bcaff"/><path class="st0" d="M94.41 13.35H44.1c-7.11 0-12.94 5.85-12.94 12.99v14.79c0 7.14 5.82 12.99 12.94 12.99h50.3c7.11 0 12.93-5.85 12.93-12.99V26.34c.01-7.14-5.81-12.99-12.92-12.99z"/><path class="st1" d="M69.25 41.14v-14.8c0-7.14 5.82-12.99 12.93-12.99H44.1c-7.11 0-12.94 5.85-12.94 12.99v14.79c0 7.14 5.82 12.99 12.94 12.99h38.09c-7.12.01-12.94-5.84-12.94-12.98z"/><path class="st0" d="M0 115.79V339c0 15.71 12.85 28.56 28.56 28.56h81.38c15.71 0 28.56-12.85 28.56-28.56V115.79H0z"/><path class="st1" d="M51.69 339V115.79H0V339c0 15.71 12.85 28.56 28.56 28.56h51.7c-15.71 0-28.56-12.85-28.57-28.56z"/><path d="M109.94 53.89H28.56C12.85 53.89 0 66.75 0 82.46v35.39h138.51V82.46c0-15.71-12.85-28.57-28.57-28.57z" fill="#dbedff"/><path class="st3" d="M80.26 53.89h-51.7C12.85 53.89 0 66.75 0 82.46v35.39h51.7V82.46c0-15.71 12.85-28.57 28.56-28.57z"/><path class="st2" d="M320.31 383.73c-82.22 0-149.11-66.89-149.11-149.11S238.1 85.51 320.31 85.51s149.11 66.89 149.11 149.11-66.89 149.11-149.11 149.11z"/><path d="M221.27 234.62c0-73.69 53.74-135.05 124.08-147a149.64 149.64 0 00-25.03-2.11c-82.22 0-149.11 66.89-149.11 149.11s66.89 149.11 149.11 149.11c8.53 0 16.89-.73 25.03-2.11-70.34-11.94-124.08-73.31-124.08-147z" fill="#294b64"/><circle class="st7" cx="320.25" cy="234.62" r="116.75"/><path class="st8" d="M253.61 234.62c0-55.8 39.34-102.57 91.74-114.06-8.07-1.77-16.44-2.71-25.03-2.71-64.39 0-116.77 52.38-116.77 116.77s52.38 116.77 116.77 116.77c8.59 0 16.96-.94 25.03-2.71-52.4-11.49-91.74-58.26-91.74-114.06z"/><circle class="st8" cx="320.25" cy="234.62" r="71.57"/><path d="M298.8 234.62c0-30.66 19.39-56.88 46.54-67.05a71.24 71.24 0 00-25.03-4.53c-39.47 0-71.58 32.11-71.58 71.58s32.11 71.58 71.58 71.58c8.8 0 17.24-1.61 25.03-4.53-27.15-10.17-46.54-36.38-46.54-67.05z" fill="#3d8bd8"/><circle cx="320.25" cy="234.62" fill="#9cc5fa" r="21.81"/><path class="st7" d="M320.31 234.62c0-8.05 4.4-15.08 10.91-18.86a21.694 21.694 0 00-10.91-2.95c-12.03 0-21.81 9.79-21.81 21.81s9.79 21.81 21.81 21.81c3.98 0 7.69-1.09 10.91-2.95-6.51-3.78-10.91-10.81-10.91-18.86z"/></svg>