<svg version="1.1" id="Capa_1" xmlns="http://www.w3.org/2000/svg" x="0" y="0" viewBox="0 0 512 397" xml:space="preserve"><style>.st0{fill:#48568c}.st2{fill:#62729a}.st4{fill:#f2f7ff}.st5{fill:#d9e6fc}</style><path class="st0" d="M271.98 157c-8.29 0-15-6.72-15-15V45c0-8.28 6.71-15 15-15H377c8.29 0 15 6.72 15 15s-6.71 15-15 15h-90.01v82c-.01 8.29-6.72 15-15.01 15zm-89.97 0c-8.28 0-15-6.72-15-15V97H60v45c0 8.28-6.72 15-15 15s-15-6.72-15-15V82c0-8.28 6.72-15 15-15h137c8.28 0 15 6.72 15 15v60c.01 8.29-6.71 15-14.99 15z"/><path d="M497 0H377c-8.28 0-15 6.72-15 15v60c0 8.28 6.72 15 15 15h120c8.28 0 15-6.72 15-15V15c0-8.28-6.72-15-15-15z" fill="#a7cafc"/><path class="st2" d="M496.98 156h-60c-2.96 0-5.86.88-8.32 2.52L391.98 186s-15 9.99-15 15v130.01c0 5.02 15 15 15 15l36.68 27.48c2.46 1.64 5.36 2.52 8.32 2.52h60c8.29 0 15-6.72 15-15V171c0-8.29-6.71-15-15-15z"/><path class="st0" d="M376.98 266v65c0 5.02 15 15 15 15l36.68 27.48c2.46 1.64 5.36 2.52 8.32 2.52h60c8.29 0 15-6.72 15-15v-95h-135z"/><path class="st0" d="M331.98 186c-8.29 0-15 6.72-15 15v130.01c0 8.28 6.71 15 15 15h60V186h-60z"/><path d="M316.98 266v65c0 8.28 6.71 15 15 15h60v-80h-75z" fill="#2c3b73"/><path class="st2" d="M331.98 127H15c-8.28 0-15 6.72-15 15v240c0 8.28 6.72 15 15 15h316.98c8.28 0 15-6.72 15-15V142c0-8.28-6.71-15-15-15z"/><path class="st0" d="M0 266v116c0 8.28 6.72 15 15 15h316.98c8.28 0 15-6.72 15-15V266H0z"/><path class="st4" d="M271.98 217h-31.64c-8.28 0-15-6.72-15-15s6.72-15 15-15h31.64c8.28 0 15 6.72 15 15 0 8.29-6.72 15-15 15z"/><circle class="st5" cx="271.91" cy="321.87" r="15"/><path class="st4" d="M271.98 281h-31.64c-8.28 0-15-6.72-15-15s6.72-15 15-15h31.64c8.28 0 15 6.72 15 15 0 8.29-6.72 15-15 15z"/><path class="st5" d="M240.34 281h31.64c8.28 0 15-6.72 15-15h-61.64c0 8.29 6.71 15 15 15z"/><path d="M181.98 187H75c-8.28 0-15 6.72-15 15v120c0 8.28 6.72 15 15 15h106.98c8.28 0 15-6.72 15-15V202c0-8.28-6.72-15-15-15z" fill="#ffe64b"/><path d="M60 266v56c0 8.28 6.72 15 15 15h106.98c8.28 0 15-6.72 15-15v-56H60z" fill="#ffc650"/></svg>